/* XPM */
static char *_742be78647d4bb2ce09ecd8c429dfbbvO9SVOGtkOft0Keh[] = {
/* columns rows colors chars-per-pixel */
"64 64 22 1 ",
"  c #060005",
". c #AD7D30",
"X c #FD523B",
"o c #A42549",
"O c #D5234F",
"+ c #FC364C",
"@ c #FF8632",
"# c #BD8F44",
"$ c #C99D57",
"% c #CFA35B",
"& c #D4A257",
"* c #D9AC68",
"= c #D6B175",
"- c #EBC178",
"; c #F0C87F",
": c #828197",
"> c #8F98B0",
", c #F0C887",
"< c #F7CF8B",
"1 c #F7D18F",
"2 c #C4D4DA",
"3 c #EAEBEB",
/* pixels */
"****----;;;;,,,,,,,,,,,,1111;;;;---------------------####&&&&&&&",
"****----;;;;,,,,,,,,,,,,1111;;;;---------------------####&&&&&&&",
"****----;;;;,,,,,,,,,,,,1111;;;;---------------------####&&&&&&&",
"****----;;;;,,,,,,,,,,,,1111;;;;---------------------####&&&&&&&",
"####;;;;%%%%============%%%%%%%%%%%%%;;;;------------********&&&",
"####;;;;%%%%============%%%%%%%%%%%%%;;;;------------********&&&",
"####;;;;%%%%============%%%%%%%%%%%%%;;;;------------********&&&",
"####;;;;%%%%============%%%%%%%%%%%%%;;;;------------********&&&",
"----;;;;;;;;;;;;11111111<<<<<<<<;;;;;;;;;;;;;;;;;--------****&&&",
"----;;;;;;;;;;;;11111111<<<<<<<<;;;;;;;;;;;;;;;;;--------****&&&",
"----;;;;;;;;;;;;11111111<<<<<<<<;;;;;;;;;;;;;;;;;--------****&&&",
"----;;;;;;;;;;;;11111111<<<<<<<<;;;;;;;;;;;;;;;;;--------****&&&",
"####%%%%%%%%%%%%%%%%%%%%%%%%====%%%%%%%%%%%%%%%%%%%%%$$$$####...",
"####%%%%%%%%%%%%%%%%%%%%%%%%====%%%%%%%%%%%%%%%%%%%%%$$$$####...",
"####%%%%%%%%%%%%%%%%%%%%%%%%====%%%%%%%%%%%%%%%%%%%%%$$$$####...",
"####%%%%%%%%%%%%%%%%%%%%%%%%====%%%%%%%%%%%%%%%%%%%%%$$$$####...",
"****----%%%%;;;;,,,,;;;;;;;;<<<<11111;;;;;;;;--------********&&&",
"****----%%%%;;;;,,,,;;;;;;;;<<<<11111;;;;;;;;--------********&&&",
"****----%%%%;;;;,,,,;;;;;;;      1111;;;;;;;;--------********&&&",
"****----%%%%;;;;,,,,;;;;;;;      1111;;;;;;;;--------********&&&",
"****----%%%%;;;;,,,,;;;;;  oooooo  11;;;;;;;;--------********&&&",
"&&&&****------------%%%%;  oooooo  111111%%%%----%%%%%%%%####...",
"&&&&****------------     +++++ooooo  1111%%%      %%%%%%%####...",
"&&&&****------------     +++++ooooo  1111%%%      %%%%%%%####...",
"&&&&****----------  X@@++@@+@@++Ooooo 111%  @++ooo  %%%%%####...",
"****####;;;;;;;;;;  X@@++@@+@@++Ooooo ----  @++ooo  ************",
"****####;;;;;;;;  XX@XX@@++@++@@+++OOo    @@+oo   **************",
"****####;;;;;;;;  XX@XX@@++@++@@+++OOo    @@+oo   **************",
"****####;;;;;;; @@@@X@@XX@@+@@++@++++Ooo  ++o  *****************",
"....####%%%%%%% @@@@X@@XX@@+@@++@++++Ooo  ++o  $$$$$$$$$$####...",
"....####%%%%%  @33  33333333333333333333oo++o  $$$$$$$$$$####...",
"....####%%%%%  @33  33333333333333333333oo++o  $$$$$$$$$$####...",
"....####%%%%%  @    222    22222222222::  +++oo  $$$$$$$$####...",
"&&&&&&&&*****  @    222    22222222222::  +++oo  ;;;;$$$$*******",
"&&&&&&&&******* 22222222222 222222222:::  +++++oo ;;;$$$$*******",
"&&&&&&&&******* 22222222222 222222222:::  +++++oo ;;;$$$$*******",
"&&&&&&&&********  222       2222222>>:  1;  oooooo  ;$$$$*******",
"&&&&&&&&####%%%%  222       2222222>>:  1%  oooooo  -****####***",
"&&&&&&&&####%%%%%%  >>>>>>>>>>>>>>>   111%%%      ---****####***",
"&&&&&&&&####%%%%%%  >>>>>>>>>>>>>>>   111%%%      ---****####***",
"&&&&&&&&####%%%%%%%%     OOOOOooo  %%1111%%%%--------****####***",
"&&&&********--------     OOOOOooo  111111--------***************",
"&&&&********--------;;;;1        11111111--------***************",
"&&&&********--------;;;;1        11111111--------***************",
"&&&&********--------;;;;11111111111111111--------***************",
"....####%%%%%%%%%%%%,,,,,,,,%%%%%%%%%%%%%%%%%%%%%$$$$########...",
"....####%%%%%%%%%%%%,,,,,,,,%%%%%%%%%%%%%%%%%%%%%$$$$########...",
"....####%%%%%%%%%%%%,,,,,,,,%%%%%%%%%%%%%%%%%%%%%$$$$########...",
"....####%%%%%%%%%%%%,,,,,,,,%%%%%%%%%%%%%%%%%%%%%$$$$########...",
"&&&&****----%%%%;;;;,,,,<<<<<<<<111111111;;;;----***************",
"&&&&****----%%%%;;;;,,,,<<<<<<<<111111111;;;;----***************",
"&&&&****----%%%%;;;;,,,,<<<<<<<<111111111;;;;----***************",
"&&&&****----%%%%;;;;,,,,<<<<<<<<111111111;;;;----***************",
"&&&&****----%%%%;;;;,,,,<<<<<<<<111111111;;;;----***************",
"&&&&####----;;;;;;;;,,,,%%%%=========%%%%;;;;;;;;$$$$----*******",
"&&&&####----;;;;;;;;,,,,%%%%=========%%%%;;;;;;;;$$$$----*******",
"&&&&####----;;;;;;;;,,,,%%%%=========%%%%;;;;;;;;$$$$----*******",
"&&&&####----;;;;;;;;,,,,%%%%=========%%%%;;;;;;;;$$$$----*******",
"&&&&****--------;;;;;;;;<<<<<<<<11111111111111111;;;;;;;;####***",
"&&&&****--------;;;;;;;;<<<<<<<<11111111111111111;;;;;;;;####***",
"&&&&****--------;;;;;;;;<<<<<<<<11111111111111111;;;;;;;;####***",
"&&&&****--------;;;;;;;;<<<<<<<<11111111111111111;;;;;;;;####***",
"....%%%%%%%%%%%%%%%%%%%%%%%%%%%%%%%%%%%%%%%%%%%%%%%%%########...",
"....%%%%%%%%%%%%%%%%%%%%%%%%%%%%%%%%%%%%%%%%%%%%%%%%%########..."
};
