/* XPM */
static char *a11f3a4871dc4fa5ee1e65cfb16c6305b1LNKlKjpHfjzWVO[] = {
/* columns rows colors chars-per-pixel */
"64 64 12 1 ",
"  c #AD7D30",
". c #BD8F44",
"X c #C99D57",
"o c #CFA35B",
"O c #D4A257",
"+ c #D9AC68",
"@ c #D6B175",
"# c #EBC178",
"$ c #F0C87F",
"% c #F0C887",
"& c #F7CF8B",
"* c #F7D18F",
/* pixels */
"++++####$$$$%%%%%%%%%%%%****$$$$#####################....OOOOOOO",
"++++####$$$$%%%%%%%%%%%%****$$$$#####################....OOOOOOO",
"++++####$$$$%%%%%%%%%%%%****$$$$#####################....OOOOOOO",
"++++####$$$$%%%%%%%%%%%%****$$$$#####################....OOOOOOO",
"....$$$$oooo@@@@@@@@@@@@ooooooooooooo$$$$############++++++++OOO",
"....$$$$oooo@@@@@@@@@@@@ooooooooooooo$$$$############++++++++OOO",
"....$$$$oooo@@@@@@@@@@@@ooooooooooooo$$$$############++++++++OOO",
"....$$$$oooo@@@@@@@@@@@@ooooooooooooo$$$$############++++++++OOO",
"....$$$$oooo@@@@@@@@@@@@ooooooooooooo$$$$############++++++++OOO",
"####$$$$$$$$$$$$********&&&&&&&&$$$$$$$$$$$$$$$$$########++++OOO",
"####$$$$$$$$$$$$********&&&&&&&&$$$$$$$$$$$$$$$$$########++++OOO",
"####$$$$$$$$$$$$********&&&&&&&&$$$$$$$$$$$$$$$$$########++++OOO",
"####$$$$$$$$$$$$********&&&&&&&&$$$$$$$$$$$$$$$$$########++++OOO",
"....oooooooooooooooooooooooo@@@@oooooooooooooooooooooXXXX....   ",
"....oooooooooooooooooooooooo@@@@oooooooooooooooooooooXXXX....   ",
"....oooooooooooooooooooooooo@@@@oooooooooooooooooooooXXXX....   ",
"....oooooooooooooooooooooooo@@@@oooooooooooooooooooooXXXX....   ",
"....oooooooooooooooooooooooo@@@@oooooooooooooooooooooXXXX....   ",
"++++####oooo$$$$%%%%$$$$$$$$&&&&*****$$$$$$$$########++++++++OOO",
"++++####oooo$$$$%%%%$$$$$$$$&&&&*****$$$$$$$$########++++++++OOO",
"++++####oooo$$$$%%%%$$$$$$$$&&&&*****$$$$$$$$########++++++++OOO",
"++++####oooo$$$$%%%%$$$$$$$$&&&&*****$$$$$$$$########++++++++OOO",
"OOOO++++############oooo$$$$&&&&*********oooo####oooooooo....   ",
"OOOO++++############oooo$$$$&&&&*********oooo####oooooooo....   ",
"OOOO++++############oooo$$$$&&&&*********oooo####oooooooo....   ",
"OOOO++++############oooo$$$$&&&&*********oooo####oooooooo....   ",
"OOOO++++############oooo$$$$&&&&*********oooo####oooooooo....   ",
"++++....$$$$$$$$$$$$*****************########+++++++++++++++++++",
"++++....$$$$$$$$$$$$*****************########+++++++++++++++++++",
"++++....$$$$$$$$$$$$*****************########+++++++++++++++++++",
"++++....$$$$$$$$$$$$*****************########+++++++++++++++++++",
"    ....oooooooooooooooooooo@@@@@@@@@ooooooooXXXXXXXXXXXX....   ",
"    ....oooooooooooooooooooo@@@@@@@@@ooooooooXXXXXXXXXXXX....   ",
"    ....oooooooooooooooooooo@@@@@@@@@ooooooooXXXXXXXXXXXX....   ",
"    ....oooooooooooooooooooo@@@@@@@@@ooooooooXXXXXXXXXXXX....   ",
"OOOOOOOO++++++++########$$$$&&&&*********$$$$$$$$$$$$XXXX+++++++",
"OOOOOOOO++++++++########$$$$&&&&*********$$$$$$$$$$$$XXXX+++++++",
"OOOOOOOO++++++++########$$$$&&&&*********$$$$$$$$$$$$XXXX+++++++",
"OOOOOOOO++++++++########$$$$&&&&*********$$$$$$$$$$$$XXXX+++++++",
"OOOOOOOO++++++++########$$$$&&&&*********$$$$$$$$$$$$XXXX+++++++",
"OOOOOOOO....oooooooo$$$$$$$$&&&&ooooo****oooo########++++....+++",
"OOOOOOOO....oooooooo$$$$$$$$&&&&ooooo****oooo########++++....+++",
"OOOOOOOO....oooooooo$$$$$$$$&&&&ooooo****oooo########++++....+++",
"OOOOOOOO....oooooooo$$$$$$$$&&&&ooooo****oooo########++++....+++",
"OOOO++++++++########$$$$*****************########+++++++++++++++",
"OOOO++++++++########$$$$*****************########+++++++++++++++",
"OOOO++++++++########$$$$*****************########+++++++++++++++",
"OOOO++++++++########$$$$*****************########+++++++++++++++",
"OOOO++++++++########$$$$*****************########+++++++++++++++",
"    ....oooooooooooo%%%%%%%%oooooooooooooooooooooXXXX........   ",
"    ....oooooooooooo%%%%%%%%oooooooooooooooooooooXXXX........   ",
"    ....oooooooooooo%%%%%%%%oooooooooooooooooooooXXXX........   ",
"    ....oooooooooooo%%%%%%%%oooooooooooooooooooooXXXX........   ",
"OOOO++++####oooo$$$$%%%%&&&&&&&&*********$$$$####+++++++++++++++",
"OOOO++++####oooo$$$$%%%%&&&&&&&&*********$$$$####+++++++++++++++",
"OOOO++++####oooo$$$$%%%%&&&&&&&&*********$$$$####+++++++++++++++",
"OOOO++++####oooo$$$$%%%%&&&&&&&&*********$$$$####+++++++++++++++",
"OOOO++++####oooo$$$$%%%%&&&&&&&&*********$$$$####+++++++++++++++",
"OOOO....####$$$$$$$$%%%%oooo@@@@@@@@@oooo$$$$$$$$XXXX####+++++++",
"OOOO....####$$$$$$$$%%%%oooo@@@@@@@@@oooo$$$$$$$$XXXX####+++++++",
"OOOO....####$$$$$$$$%%%%oooo@@@@@@@@@oooo$$$$$$$$XXXX####+++++++",
"OOOO....####$$$$$$$$%%%%oooo@@@@@@@@@oooo$$$$$$$$XXXX####+++++++",
"OOOO++++########$$$$$$$$&&&&&&&&*****************$$$$$$$$....+++",
"OOOO++++########$$$$$$$$&&&&&&&&*****************$$$$$$$$....+++"
};
