/* XPM */
static char * player_xpm[] = {
"64 64 460 2",
"  	c #D9AC68",
". 	c #EBC178",
"+ 	c #F0C87F",
"@ 	c #F0C887",
"# 	c #F7D18F",
"$ 	c #BD8F44",
"% 	c #D4A257",
"& 	c #EFC77E",
"* 	c #CFA35B",
"= 	c #A48046",
"- 	c #BA9251",
"; 	c #D6B175",
"> 	c #6E552D",
", 	c #5B4624",
"' 	c #BE9D67",
") 	c #E4BB75",
"! 	c #E5BC75",
"~ 	c #D6A966",
"{ 	c #D6AA67",
"] 	c #D2A664",
"^ 	c #CCA261",
"/ 	c #CBB293",
"( 	c #929599",
"_ 	c #202122",
": 	c #3C301C",
"< 	c #B39461",
"[ 	c #DFC7A7",
"} 	c #DCC8AE",
"| 	c #CCB69E",
"1 	c #D4C2AE",
"2 	c #BEB5AB",
"3 	c #947445",
"4 	c #F0C880",
"5 	c #DBC4A8",
"6 	c #544133",
"7 	c #050212",
"8 	c #000009",
"9 	c #34343C",
"0 	c #79633F",
"a 	c #AA8C5C",
"b 	c #B49461",
"c 	c #CBA86F",
"d 	c #E7C286",
"e 	c #FCF6EE",
"f 	c #8A8C91",
"g 	c #00000D",
"h 	c #1B1427",
"i 	c #6B5B46",
"j 	c #C59C5E",
"k 	c #DEC9B2",
"l 	c #0E071A",
"m 	c #504C62",
"n 	c #9195A2",
"o 	c #00000C",
"p 	c #21202B",
"q 	c #333130",
"r 	c #493B24",
"s 	c #A38657",
"t 	c #D4AF74",
"u 	c #E9BF77",
"v 	c #E1B973",
"w 	c #DAB474",
"x 	c #DBD0C2",
"y 	c #4D4648",
"z 	c #7C746C",
"A 	c #B58F56",
"B 	c #EFD3A7",
"C 	c #100F1C",
"D 	c #383845",
"E 	c #9DA2AF",
"F 	c #B2BBC7",
"G 	c #000003",
"H 	c #61646D",
"I 	c #545454",
"J 	c #574930",
"K 	c #CEAE76",
"L 	c #F5CF8E",
"M 	c #F7CF8B",
"N 	c #E8C27B",
"O 	c #BF9F64",
"P 	c #A08553",
"Q 	c #787371",
"R 	c #333241",
"S 	c #989CAF",
"T 	c #413D4F",
"U 	c #939393",
"V 	c #B79056",
"W 	c #40354F",
"X 	c #6E6D84",
"Y 	c #BDC2CB",
"Z 	c #84879A",
"` 	c #B3B7BB",
" .	c #706A62",
"..	c #B39766",
"+.	c #EBC788",
"@.	c #EDC57D",
"#.	c #D0AD6D",
"$.	c #6D5A36",
"%.	c #372C18",
"&.	c #000000",
"*.	c #000002",
"=.	c #76798C",
"-.	c #97866E",
";.	c #CEA463",
">.	c #EFD4AB",
",.	c #1F1E2D",
"'.	c #565369",
").	c #F9F9F9",
"!.	c #C0C0C0",
"~.	c #766446",
"{.	c #B69A68",
"].	c #EFCA8A",
"^.	c #EEC67E",
"/.	c #E2BC77",
"(.	c #B89960",
"_.	c #6E5B37",
":.	c #1C1C26",
"<.	c #A8AEBA",
"[.	c #B89C70",
"}.	c #D7AA67",
"|.	c #EFDBBD",
"1.	c #2F233B",
"2.	c #484258",
"3.	c #777A8D",
"4.	c #2B2B39",
"5.	c #555464",
"6.	c #383632",
"7.	c #9B8258",
"8.	c #F2CD8C",
"9.	c #EBC47C",
"0.	c #BD9D63",
"a.	c #745F3A",
"b.	c #3B3945",
"c.	c #191923",
"d.	c #6D6F7F",
"e.	c #ADB5C1",
"f.	c #7A7D90",
"g.	c #B49768",
"h.	c #CFA35C",
"i.	c #E0CEBA",
"j.	c #626072",
"k.	c #838692",
"l.	c #595652",
"m.	c #7D6235",
"n.	c #C29855",
"o.	c #CDA15A",
"p.	c #CA9F59",
"q.	c #987741",
"r.	c #61646E",
"s.	c #272734",
"t.	c #1A0F25",
"u.	c #3E3A4B",
"v.	c #838699",
"w.	c #917E67",
"x.	c #BB8E43",
"y.	c #AD7D30",
"z.	c #D0A663",
"A.	c #E6DDD4",
"B.	c #727288",
"C.	c #ADADAE",
"D.	c #584D40",
"E.	c #95743F",
"F.	c #B99150",
"G.	c #D1AD72",
"H.	c #C79C57",
"I.	c #C69C57",
"J.	c #C39955",
"K.	c #B79050",
"L.	c #B7904F",
"M.	c #BE9653",
"N.	c #B68F4F",
"O.	c #B18B4D",
"P.	c #8D6E3C",
"Q.	c #47361B",
"R.	c #62656F",
"S.	c #777777",
"T.	c #B78B42",
"U.	c #CDA66B",
"V.	c #E9E3DD",
"W.	c #1C1027",
"X.	c #67667B",
"Y.	c #F3F3F3",
"Z.	c #A4A4A4",
"`.	c #595959",
" +	c #7A6547",
".+	c #A38961",
"++	c #AE9776",
"@+	c #83725A",
"#+	c #675435",
"$+	c #8F7247",
"%+	c #987E5B",
"&+	c #8D8070",
"*+	c #818181",
"=+	c #878480",
"-+	c #9A8B7A",
";+	c #948573",
">+	c #9C9286",
",+	c #A2A2A2",
"'+	c #3E384B",
")+	c #050211",
"!+	c #808081",
"~+	c #B68941",
"{+	c #BEA688",
"]+	c #EDEDED",
"^+	c #3D2E48",
"/+	c #1D1629",
"(+	c #261630",
"_+	c #EEEEEF",
":+	c #FFFFFF",
"<+	c #F3F6F8",
"[+	c #373743",
"}+	c #353542",
"|+	c #33333F",
"1+	c #30303C",
"2+	c #E4E4E5",
"3+	c #F4F4F4",
"4+	c #E8EBED",
"5+	c #443F54",
"6+	c #2C1D37",
"7+	c #7C756E",
"8+	c #B48840",
"9+	c #C99F58",
"0+	c #97836C",
"a+	c #D7D7D8",
"b+	c #372943",
"c+	c #717279",
"d+	c #7C756D",
"e+	c #DDB570",
"f+	c #87714D",
"g+	c #D2D2D2",
"h+	c #817971",
"i+	c #CDA262",
"j+	c #E4BB74",
"k+	c #9C7F4E",
"l+	c #ACACAC",
"m+	c #5C5A6F",
"n+	c #767677",
"o+	c #CAA061",
"p+	c #866D42",
"q+	c #C49B5D",
"r+	c #A68853",
"s+	c #74778B",
"t+	c #848484",
"u+	c #886B3E",
"v+	c #6D6D6E",
"w+	c #7F8194",
"x+	c #929293",
"y+	c #B28640",
"z+	c #82663C",
"A+	c #585858",
"B+	c #A39E99",
"C+	c #B98C42",
"D+	c #D5A966",
"E+	c #6A532F",
"F+	c #474747",
"G+	c #84868A",
"H+	c #AA9985",
"I+	c #BB8D43",
"J+	c #D7AB67",
"K+	c #C1995C",
"L+	c #9E8253",
"M+	c #E7E4E0",
"N+	c #EFEFEE",
"O+	c #A88650",
"P+	c #BC8E44",
"Q+	c #E6BD75",
"R+	c #C4AD8B",
"S+	c #D8DDE2",
"T+	c #CCD0D5",
"U+	c #83735D",
"V+	c #E3BD78",
"W+	c #EEE6DB",
"X+	c #CCCECF",
"Y+	c #9D7F54",
"Z+	c #C4A46C",
"`+	c #DFDFE0",
" @	c #AAAFBC",
".@	c #ADB3C0",
"+@	c #8A8DA3",
"@@	c #A1A7B5",
"#@	c #998369",
"$@	c #D4A865",
"%@	c #D8B472",
"&@	c #8D8477",
"*@	c #DCDCDC",
"=@	c #807593",
"-@	c #C3C9D0",
";@	c #A5ABB9",
">@	c #C9C4BE",
",@	c #C39A5D",
"'@	c #DFBA76",
")@	c #877047",
"!@	c #A0A0A0",
"~@	c #302F3E",
"{@	c #A19281",
"]@	c #D4A866",
"^@	c #C89D58",
"/@	c #896B3A",
"(@	c #737373",
"_@	c #645474",
":@	c #9B7E54",
"<@	c #C89C57",
"[@	c #C99D57",
"}@	c #AA8549",
"|@	c #68645F",
"1@	c #9C7E54",
"2@	c #C89C56",
"3@	c #715934",
"4@	c #A5865B",
"5@	c #8B6D3F",
"6@	c #AB977E",
"7@	c #9E7D4E",
"8@	c #746383",
"9@	c #6A4968",
"0@	c #C4AD89",
"a@	c #9D8057",
"b@	c #593A59",
"c@	c #C6D1DA",
"d@	c #CBBCA7",
"e@	c #D0A563",
"f@	c #B2A392",
"g@	c #E3EEF1",
"h@	c #E1E6EA",
"i@	c #DFD6CB",
"j@	c #C19754",
"k@	c #BF9860",
"l@	c #E8E3DF",
"m@	c #FCFCFD",
"n@	c #FCFEFF",
"o@	c #FAFAFB",
"p@	c #B1936C",
"q@	c #D1A664",
"r@	c #DED2C5",
"s@	c #D1D0CD",
"t@	c #BA9252",
"u@	c #B98C43",
"v@	c #CCBBAB",
"w@	c #6B6470",
"x@	c #FEFFFF",
"y@	c #D7CEC7",
"z@	c #C0985C",
"A@	c #D3A157",
"B@	c #B58B4B",
"C@	c #E7DACD",
"D@	c #8D8C8F",
"E@	c #8D8D90",
"F@	c #8F867D",
"G@	c #927344",
"H@	c #AF843E",
"I@	c #D5A35B",
"J@	c #E4D6C7",
"K@	c #B2B7BF",
"L@	c #6F5F4A",
"M@	c #A77E3B",
"N@	c #D4A359",
"O@	c #D5C0AB",
"P@	c #34271D",
"Q@	c #D3C2B0",
"R@	c #E1C8AB",
"S@	c #4C3C2B",
"T@	c #E2CAAF",
"U@	c #D9AC69",
"V@	c #E1C9AD",
"W@	c #4A3926",
"X@	c #DDB888",
"Y@	c #C1AB98",
"Z@	c #A6A3A8",
"`@	c #8F949F",
" #	c #848994",
".#	c #8F9199",
"+#	c #CEB99F",
"@#	c #DAAE6E",
"##	c #E9D2B8",
"$#	c #D3D3D3",
"%#	c #656565",
"&#	c #0C0C0C",
"*#	c #8B6D40",
"=#	c #DBB37A",
"-#	c #F3EAE3",
";#	c #909294",
">#	c #090909",
",#	c #D2A765",
"'#	c #D0A562",
")#	c #E4D0BA",
"!#	c #828282",
"~#	c #916D32",
"{#	c #E6D3BC",
"]#	c #A7A7A7",
"^#	c #131313",
"/#	c #997335",
"(#	c #D1A665",
"_#	c #D5CBBF",
":#	c #565465",
"<#	c #686A6D",
"[#	c #D5AF7A",
"}#	c #D7D7D7",
"|#	c #37323A",
"1#	c #F6F0EA",
"2#	c #F4ECE4",
"3#	c #FBF3E8",
"4#	c #FEFDFB",
"5#	c #E4CFB6",
"6#	c #D6B383",
"7#	c #E6D3BD",
"8#	c #57473E",
"9#	c #BA976A",
"0#	c #F0D4AB",
"a#	c #EEEAE7",
"b#	c #F9EAD5",
"c#	c #F1D098",
"d#	c #F1CF94",
"e#	c #F1CD96",
"f#	c #F1D9B8",
"g#	c #F9EBD9",
"h#	c #D9DDE0",
"i#	c #E1D6C7",
"j#	c #F1CA86",
"k#	c #ECC687",
"l#	c #F0E4D7",
"m#	c #A68769",
"n#	c #D9BA92",
"o#	c #D7B991",
"p#	c #D8BA94",
"q#	c #D5B283",
"r#	c #F2D19C",
"s#	c #F1CB91",
"t#	c #F4E0C5",
"u#	c #F3EEE9",
"v#	c #F1E6DA",
"w#	c #ECC78C",
"x#	c #E1C7A6",
"y#	c #DBB177",
"z#	c #F8DCB5",
"A#	c #5B515C",
"B#	c #DBCCB8",
"C#	c #FAE5C8",
"D#	c #C9CACA",
"E#	c #D7C7B1",
"F#	c #F7D08E",
"G#	c #FAE4C4",
"H#	c #F0E8DF",
"I#	c #F6D08F",
"J#	c #D1A766",
"K#	c #D7C3AB",
"L#	c #807A79",
"M#	c #8D8278",
"N#	c #CFA562",
"O#	c #E4CDAF",
"P#	c #F4ECE3",
"Q#	c #CACAC7",
"R#	c #735F41",
"S#	c #D0BA9C",
"T#	c #DEC199",
"U#	c #D7B278",
"V#	c #D6B176",
"W#	c #DBBD91",
"X#	c #E0C7A5",
"Y#	c #DEC5A3",
"Z#	c #D9BA8A",
"`#	c #D6B277",
"        . . . . + + + + @ @ @ @ @ @ @ @ @ @ @ @ # # # # + + + + . . . . . . . . . . . . . . . . . . . . . $ $ $ $ % % % % % % % ",
"        . . . . + + + + @ @ @ @ @ @ @ @ @ @ @ @ # # # # + + + + . . . . . . . . . . . . . . . . . . . . . $ $ $ $ % % % % % % % ",
"        . . . . + + + + @ @ @ @ @ @ @ @ @ @ @ @ # # # # + + + + . . . . . . . . . . . . . . . . . . . . . $ $ $ $ % % % % % % % ",
"        . . . . + + & + @ @ @ @ @ @ @ @ @ @ @ @ # # # # + + + + . . . . . . . . . . . . . . . . . . . . . $ $ $ $ % % % % % % % ",
"$ $ $ $ + + + + * * = - ; ; ; ; ; ; ; ; ; ; ; ; * * * * * * * * * * * * * + + + + . . . . . . . . . . . .                 % % % ",
"$ $ $ $ + + + + * * > , ' ; ; ; ; ; ; ; ; ; ; ; * * * * * * * * * * * * * + + + + . . . . . . . . . . ) ! ~ { ] ^         % % % ",
"$ $ $ $ + + + + * / ( _ : < ; ; ; ; ; ; ; ; ; ; * * * * * * * * * * * * * + + + + . . . . . . . . . . [ } | 1 2 3         % % % ",
"$ $ $ $ + + + 4 5 6 7 8 9 : 0 a b c ; ; ; ; ; ; * * * * * * * * * * * * * + + + + . . . . . . . . . d e f g 7 h i j       % % % ",
"$ $ $ $ + + + + k l m n o p q r r s t ; ; ; ; ; * * * * * * * * * * * * * + + + + . . . . . . u v w x y g f m 7 z A       % % % ",
". . . . + + + + B C D E F D G H I J K L # # # # M M M M M M M M + + + + + + + + + + + + + + N O P Q o R F S T C U V       % % % ",
". . . . + + + + B C R W X Y Z g D `  ...+.# # # M M M M M M M M + + + + + + + + + + + + @.#.$.%.&.*.=.Y X W R C -.;.      % % % ",
". . . . + + + + >.C D ,.l '.E F R ,.).!.~.{.].# M M M M M M M M + + + + + + + + + + ^./.(._.&.&.:.<.S m C ,.D C [.}.      % % % ",
". . . . + + + + |.C R 1.G 7 2.3.F Z 4.4.5.6.7.8.M M M M M M M M + + + + + + + + + 9.0.a.b.c.c.d.e.f.2.l G 1.D C g.}.      % % % ",
"$ $ $ $ * * * h.i.C R 1.g g g R j.Z T C 4.k.l.m.n.o.* * ; ; ; ; * * * * * * * * p.q.&.r.s.t.u.v.j.R g g g 1.D C w.x.$ $ $ y.y.y.",
"$ $ $ $ * * * z.A.C R 1.G 7 g G ,.'.3.B.2.G n C.D.E.F.* ; ; ; G.H.I.J.K.L.M.N.O.P.Q.R.G T B.f.'.,.G g 7 G 1.D C S.T.$ $ $ y.y.y.",
"$ $ $ $ * * * U.V.C R 1.g g g g G W.2.X.X.W 7 T Y.Z.`. +.+++@+#+$+%+&+*+=+-+;+>+,+'+)+W X.X.2.W.G 7 g g g 1.D C !+~+$ $ $ y.y.y.",
"$ $ $ $ * * * {+]+C R ^+W.7 g g g g /+^+'.'.1.(+T _+:+<+T D D [+}+}+|+1+1+2+3+4+5+(+6+'.'.W /+g g g g 7 W.^+D C 7+8+$ $ $ y.y.y.",
"$ $ $ $ * * 9+0+a+C R W 1.7 g g g g g C b+2.2.W.G c+f c+l 7 7 7 7 7 7 7 l c+f c+G W.T 2.b+C g g g g g 7 1.W D C d+8+$ $ $ y.y.y.",
"        . . e+f+g+C R W 1.7 g g g g g g l b+W 6+g G G g b+W W ^+1.^+W W b+g G G g (+W b+C g g g g g g 7 1.W D C h+i+      % % % ",
"        . . j+k+l+C R W 1.W.g g g g g 7 g l 1.6+l W.1.^+6+T '.2.W m m+2.6+b+1.W.l (+b+C g g g g g g g W.1.W D C n+o+      % % % ",
"        . . ! p+U C R W 1.(+W.g g g g g g g 6+1.1.6+2.m+2.6+'.X.'.X.m+1.T m+2.6+1.1.6+g g g g g g g W.(+1.W D C n+q+      % % % ",
"        . . u r+n+C R W 6+/+(+l g g g g 7 W.1.T j.X.B.3.3.T T Z s+Z T W s+s+B.X.j.T 1.W.7 g g g g C (+(+1.W D C t+q+      % % % ",
"% % % %     }.u+v+C D W 6+/+(+l g 7 g 7 (+b+m B.'.2.X 3.3.3.2.B.w+B.2.s+s+s+X 2.m B.m b+(+7 g 7 g C (+(+6+W T C x+y+$ $ $ y.y.y.",
"% % % %     }.z+A+g l W 1.W.(+W.7 g 7 (+T X.w+f.m+(+'.w+B.B.3.B.3.B.3.B.B.f.'.(+'.3.f.X.W (+7 g 7 W.(+(+1.W l g B+C+$ $ $ y.y.y.",
"% % % %     D+E+F+G+D l b+W.l W.7 7 6+m B.m+m f.w+m+W f.s+2.X.f.s+f.X.T B.3.W '.w+f.m '.B.m 6+7 7 (+l /+^+C R f H+I+$ $ $ y.y.y.",
"% % % %     J+K+L+M+f G /+1.l g 7 (+b+s+s+^+6+'.3.f.j.X f.s+j.3.s+3.X.B.3.X m+f.3.m+6+^+B.s+b+(+l 7 l 1./+G f.N+O+P+$ $ $ y.y.y.",
"% % % %         Q+R+S+2.g W.6+l (+6+1.b+X.w+X.m B.3.f.3.s+3.f.3.f.3.f.3.s+s+3.s+B.m X.Z X b+1.6+W.l 6+/+g 2.T+U+p.$ $ $ $ y.y.y.",
"        $ $ $ $ + V+W+S+G g /+(+6+b+T 2.T X.w+w+s+3.s+s+3.X B.3.Z 3.s+X s+s+s+3.s+f.w+X.T 2.T b+6+(+/+g G X+Y+]                 ",
"        $ $ $ $ + & Z+`+ @4.7 1.b+X..@Y n B.3.w+w+s+3.3.3.s+X.s+s+s+X.B.3.s+3.s+f.w+3.X +@F .@X.b+1.7 ,.@@#@$@                  ",
"        $ $ $ $ + + %@&@*@T l W 2.B.=@S -@;@s+s+S Z 3.f.s+3.3.s+s+s+s+3.s+f.3.Z S s+s+E -@S =@=@2.W l D >@,@                    ",
"        $ $ $ $ + + '@)@!@D l ^+W.7 7 W =@.@F Z s++@3.3.3.f.3.3.3.3.s+3.3.3.3.+@s+w+F F =@W l 7 W.^+l ~@{@]@                    ",
"y.y.y.y.$ $ $ $ * * ^@/@(@D l 1.G g g G ,._@S -@;@s+s+f.B.X w+s+3.s+w+X B.f.s+B.S Y S _@,.g g g G 6+l ~@:@<@[@[@[@$ $ $ $ y.y.y.",
"y.y.y.y.$ $ $ $ * * * }@|@D l b+l 7 7 7 G 7 W B..@Y +@s+w+X +@3.3.3.+@X w+B.Z F .@=@W 7 G 7 7 g l b+l ~@1@2@[@[@[@$ $ $ $ y.y.y.",
"y.y.y.y.$ $ $ $ * * * n.3@D l ^+6+W.g 1.(+g G /+'.+@Y ;@w++@n X.B.X.+@Z f.E Y n _@,.G g 6+b+g W.6+^+l R 4@<@[@[@[@$ $ $ $ y.y.y.",
"y.y.y.y.$ $ $ $ * * * p.5@D l T ^+1.g 2._@b+l G 7 R X ;@Y n +@2.m+2.Z +@F ;@B.W 7 G l b+_@m g 1.^+T l R 6@<@[@[@[@$ $ $ $ y.y.y.",
"% % % % % % % %       { 7@D l W '.T G X +@8@9@W.g G /+'.Z F f.6+m 6+s+F +@_@/+G g W.9@8@+@X G T '.W l R 0@<@[@[@[@              ",
"% % % % % % % %       ~ a@D l W '.j.G w+-@.@+@1.g 7 G 7 b@_@b+C 2.W.b+_@b@l G 7 g 1.+@.@c@Z G j.'.W l D d@2@[@[@[@              ",
"% % % % % % % %       e@f@D l ^+'.j.G n g@h@c@4.G 7 g 7 7 l g l 1.C g l 7 g g 7 G 4.c@g@<+S G m+'.b+l D i@j@[@[@[@              ",
"% % % % % % % %       k@l@D 7 2.X.m+G X S+m@n@w+,.G /+^+7 7 W.W '.W W.7 7 ^+/+G /+3.o@m@h@s+G m+X.2.7 D :+p@[@[@[@              ",
"% % % % % % % %     q@r@4.l 2.j.3.S R D n :+o@:+E R S 8@7 6+j.B.B.B.m+(+7 8@S R E :+o@:+n D 4.S 3.j.2.l 4.s@t@[@[@              ",
"% % % % % % % % $ u@v@w@G m+s+X f.n E 2.G n :+:+n@c@S+w+G 2.Z 3.w+s+w+T G w+S+c@x@:+:+n G 2.E n 3.X B.m+G j.y@z@  $ $ $ $       ",
"% % % % % % % A@B@C@D@G m+B.m+X.'.m 3.;@X.7 D T D R 4.l 7 j.;@n +@n ;@m+7 l 1.R D T D g j.;@3.m m X.m+X j.G E@F@G@H@$ $ $       ",
"% % % % % % % I@J@Y /+m X 2.2.^+b+'.m+X.E w+R 4.4.4.T m (+j.E E ;@E E j.(+m 2.4.4.4.4.w+S X.m+m b+^+T 2.X '.,.K@L@M@$ $ $       ",
"% % % % % % % N@O@l 1.m+b+b+1.1.^+b+W '.m++@.@.@.@.@w+Z W Z h@c@S+c@h@+@W w+w+F .@.@.@+@m+m W b+^+1.6+b+b+'.4.P@Q@$ $ $ $       ",
"% % % %         R@/+W.(+W.W.W.1.b+(+6+b+2.'.m+m W 2.;@<+m Z -@c@S+c@Y n m g@;@m T m '.m 2.b+6+(+b+1.W.W.W.(+W.S@T@              ",
"% % % %       U@V@7 G G G g /+1.7 l W.(+^+2.^+m E Y <+g@D 1.'.2.2.T '.b+R g@<+Y S m b+T b+(+W.l 7 6+/+g G G G W@V@              ",
"% % % %       U@X@Y@Z@E ;@/+G 1.1.(+G G G 7 l '.h@g@g@h@/+W.j.3.3.s+m+/+C h@g@g@h@m l 7 G G G /+b+1.G C @@`@ #.#+#              ",
"% % % %           @###:+:+n 4.g l W.T X.w+f m+X c@Y h@<+j.G 7 /+/+/+l G m+<+h@-@c@B.m+w+w+X.T W.l g 4.f $#%#&#*#J+              ",
"% % % %             =#-#<+:+w+G 4.f x@x@h@Y =@X.F ;@F S+S+j.C g g g C m+S+S+F ;@F 8@=@Y h@n@x@f 4.G f.:+;#>#&.,#                ",
"y.y.y.y.$ $ $ $ * * '#)#:+D C n o@S+X.j.W g g /+8@j.S .@F F B.7 g 7 B.F F .@E j.X (+g g ^+_@X.S+n@S /+D !#&.~#$ $ $ $ $ $ y.y.y.",
"y.y.y.y.$ $ $ $ * * '#{#:+R m h@=@^+G G G G g W.b@8@w++@+@+@=@^+6+^+w+n +@+@w+8@9@/+g G G G G ^+B.h@'.4.]#^#/#$ $ $ $ $ $ y.y.y.",
"y.y.y.y.$ $ $ $ * * (#_#j.C b+=@7 l .@F .@Y R G 1.9@8@B.X X 8@b@1.b@8@B.B.B.8@9@1.G 4.Y .@F .@l g =@R C :#<#M@$ $ $ $ $ $ y.y.y.",
"y.y.y.y.$ $ $ $ * * [#}#|#7 7 W.2.c+1#2#3#4#E T G /+b@9@9@9@b@W.G W.b@9@9@9@b@(+G T E 5#6#6#7#c+2.W.7 7 8#9#$ $ $ $ $ $ $ y.y.y.",
"% % % %         . . . 0#1#m+C ,.a#b#c#d#e#f#g#h#/+7 l /+(+W.g 7 1.7 g W.(+(+l 7 /+i#j#+ + . . k#l#,.l m#@#                      ",
"% % % %         . . . . n#o#p#q#r#+ + + @ @ s#t#u#C G 7 7 C 1._@=@_@1.W.7 7 G C v#4 + + + . . . w#x#y#                          ",
"% % % %         . . . . h.* * * + + + + @ @ @ @ z#-@'.G 6+_@=@n ;@S =@_@6+G A#B## + + + + . . . .                               ",
"% % % %         . . . . * * * * + + + + @ @ @ @ M C#D#j.l '.Z w+w+w+Z _@l j.E## # + + + + . . . .                               ",
"% % % %         . . . . * * * * + + + + @ @ @ @ M F#G#_+G l 1.b@b@b@1.l G H#I## # + + + + . . . .                               ",
"% % % % $ $ $ $ . . . . + + + + + + + + @ @ @ @ * * J#K#L#c+m 7 l 7 m c+M#N#* * * + + + + + + + + [@[@[@[@. . . .               ",
"% % % % $ $ $ $ . . . . + + + + + + + + @ @ @ @ * * * '#O#P#Q#C ,.R#S#T#U#* * * * + + + + + + + + [@[@[@[@. . . .               ",
"% % % % $ $ $ $ . . . . + + + + + + + + @ @ @ @ * * * * V#W#X#Y#Z#`#; ; ; * * * * + + + + + + + + [@[@[@[@. . . .               ",
"% % % % $ $ $ $ . . . . + + + + + + + + @ @ @ @ * * * * ; ; ; ; ; ; ; ; ; * * * * + + + + + + + + [@[@[@[@. . . .               ",
"% % % %         . . . . . . . . + + + + + + + + M M M M M M M M # # # # # # # # # # # # # # # # # + + + + + + + + $ $ $ $       ",
"% % % %         . . . . . . . . + + + + + + + + M M M M M M M M # # # # # # # # # # # # # # # # # + + + + + + + + $ $ $ $       "};
