/* XPM */
static char * cat_xpm[] = {
"64 64 61 1",
" 	c #FDFEFE",
".	c #FCFEFF",
"+	c #FFFFFF",
"@	c #FDFEFF",
"#	c #00000D",
"$	c #FCFCFD",
"%	c #FEFFFF",
"&	c #050212",
"*	c #000003",
"=	c #0E071A",
"-	c #777A8D",
";	c #FAFAFB",
">	c #1C1027",
",	c #484258",
"'	c #74778B",
")	c #2F233B",
"!	c #40354F",
"~	c #100F1C",
"{	c #EEEEEF",
"]	c #372943",
"^	c #727288",
"/	c #261630",
"(	c #2C1D37",
"_	c #565369",
":	c #383845",
"<	c #67667B",
"[	c #7F8194",
"}	c #333241",
"|	c #504C62",
"1	c #1D1629",
"2	c #6E6D84",
"3	c #413D4F",
"4	c #2B2B39",
"5	c #626072",
"6	c #3D2E48",
"7	c #5C5A6F",
"8	c #7A7D90",
"9	c #8A8DA3",
"0	c #9195A2",
"a	c #84879A",
"b	c #D8DDE2",
"c	c #B2BBC7",
"d	c #9DA2AF",
"e	c #F3F6F8",
"f	c #E1E6EA",
"g	c #ADB3C0",
"h	c #A5ABB9",
"i	c #BDC2CB",
"j	c #989CAF",
"k	c #F2F2F3",
"l	c #1F1E2D",
"m	c #807593",
"n	c #645474",
"o	c #8A8C91",
"p	c #593A59",
"q	c #746383",
"r	c #C6D1DA",
"s	c #6A4968",
"t	c #E3EEF1",
"u	c #717279",
"v	c #C3C9D0",
".@.....@@@@..@@....@@...@.@..@@@@@@......@..@@@@@@@.@@@@@...@...",
".$    ....      .....         ..    ...       @@     .@        $",
".      ..      @@              ..                              $",
"@      . ;$$   ...      .      ..   ..               $;;        ",
"@        +++;$  .  ........     .  ....             ;+++        ",
"@       ;fbf+ ;    ....... .....     .            ;$+{bf;       ",
"@@    $+{1&#[++;   .....  ....... $ ......       ;++o#&1{+$     ",
"@     $+{=|0#}f+;;  ...   .......      ...     ;;+f:#o|&{+$     ",
"@@    $+{~:dc:*0++;  .    ..........   ..     ;++d#}cj3~{+$     ",
"@@    $+{~}!2ia#:b+;$@   ...........   ..   $;+f3*-i2!}~{+$..   ",
"@@ .. $+{~:l=_dc}l+++;$   ..  ......    . $;+++l4gj|~l:~{+$...  ",
".  .  $+{~})*&,-ca445++;@     ....       ;++544[c8,=*):~{+$.    ",
"@@    $+{~})###}5a3~40f+;    $.....$    ;+f04>3a5}###):~{+$     ",
"@.    $+{~})*&#*l_-^,*0{;$  $;;$;;;;$  $;{0*3^8_l*#&*):~{+$     ",
"@. ...$+{~})####*>,<<!&3+;;;+++++++++;ee+,&!<<,>*&###):~{+$     ",
".@ ...$+{~}6>&####16__)/3{+e3::::::::k+e,/(__!1####&>6:~{+$  .  ",
"@@....$+{~}!)&#####~],,>*uou=&&&&&&&=uou*>3,]~#####&)!:~{+$  .  ",
"@. ...$+{~}!)&######=]!(#**#]!!6)6!!]#**#/!]~######&)!:~{+$..   ",
"@. ...$+{~}!)>#####&#=)(=>)6(3_,!|7,(])>=/]~#######>)!:~{+$..   ",
"@@ .  $+{~}!)/>#######())(,7,(_<_<7)37,())(#######>/)!:~{+$...@ ",
"@@    $+{~}!(1/=####&>)35<^--33a'a3!''^<53)>&####~//)!:~{+$..   ",
"@ . . $+{~:!(1/=#&#&/]|^_,2---,^[^,'''2,|^|]/&#&#~//(!3~{+$..   ",
"@ @.. $+{#=!)>/>&#&/3<[87/_[^^-^-^-^^8_/_-8<!/&#&>//)!=#{+$..   ",
"@. ...$+ko:=]>=>&&(|^7|8[7!8',<8'8<3^-!_[8|_^|(&&/=16~}ok+$     ",
"@.....  ;+o*1)=#&/]''6(_-8528'5-'-<^-278-7(6^']/=&=)1*8+;$....  ",
"@@..... $ b,#>(=/()]<[<|^-8-'-8-8-8-''-'^|<a2])(>=(1#,b@;...... ",
"@  .. .  ;+b*#1/(]3,3<[['-''-2^-a-'2'''-'8[<3,3](/1#*b+;......  ",
"@@ ....    {g4&)]<gi0^-[['---'<'''<^-'-'8[-29cg<])&lh{ $.....   ",
"@.......@ $ +3=!,^mjvh''ja-8'--''''-'8-aj''dvjmm,!=:+@$......   ",
".........  ;+:=6>&&!mgca'9---8----'----9'[ccm!=&>6=}+;. ... .   ",
"@......... ;+:=)*##*lnjvh''8^2['-'[2^8'^jijnl###*(=}+$  @.  ..  ",
"@.  ..... .;+:=]=&&&*&!^gi9'[29---92[^acgm!&*&&#=]=}+$  ....    ",
"@@ ........;+:=6(>#)/#*1_9ih[90<^<9a8di0nl*#(]#>(6=}+$$ ....    ",
"@@@.....   ;+:=36)#,n]=*&}2hi09,7,a9ch^!&*=]n|#)63=}+$. .....   ",
"@@ ....    ;+:=!_3*29qs>#*1_ac8(|('c9n1*#>sq92*3_!=}+$$ @....   ",
"@@ ....... ;+:=!_5*[vg9)#&*&pn]~,>]np=*&#)9gra*5_!=:+$    ...   ",
"@@ ....... ;+:=6_5*0tfr4*&#&&=#=)~#=&##&*4rtej*7_]=:+$  @....   ",
"@. .......$;+:&,<7*2b$.[l*16&&>!_!>&&61*1-;$f'*7<,&:+;$  ...... ",
"@..... @ ;+f4=,5-j}:0+;+d}jq&(5^^^7/&qj}d+;+0:4j-5,=4f+;  ..    ",
"@....    ;$5*7'280d,*0++.rb[*,a-['[3*[br%++0*,d0-2^7*5;;$ .@    ",
"@....   ;+o*7^7<_|-h<&:3:}4=&5h090h7&=)}:3:#5h-||<725*o+;       ",
"@. ... $+i1|2,,6]_7<d[}4443|/5ddhdd5/|,4444[j<7|]63,2_li+$      ",
"@.    $+k=)7]]))6]!_79gggg[a!afrbrf9![[cggg97|!]6)(]]_4&k+$     ",
"@.    $+{1>/>>>)]/(],_7|!,he|avrbri0|th|3|_|,](/])>>>/>~{+$..   ",
"@.  . $+{&***#1)&=>/6,6|diet:)_,,3_]}teij|]3]/>=&(1#***&{+$..   ",
"@@  ..$ ehddh1*))/***&=_fttf1>5--'71~fttf|=&***1])*~hddhe%$..   ",
"@.   .   ++++04#=>3<[o72rife5*&111=*7efvr^7[[<3>=#4o++++        ",
"@. $     ;;;e+[*4o%%fim<chcbb5~###~7bbchcqmif.%o4*8+e;;;  @     ",
"@@    .    ;+:~0;b<5!##1q5jgcc^&#&^ccgd52/##6n<b.j1:+;  ....    ",
"@@ @..... $++}|fm6****#>pq[999m6(6[099[qs1#****6^f_4++$......   ",
"@@  .....$+b5~]m&=gcgi}*)sq^22qp)pq^^^qs)*4igcg=#m}~5b+; ....   ",
"@@  .... ;+b4&&>,u++++d3*1psssp>*>psssp/*3d++++u,>&&4r+; ...    ",
"@@ . ...  $ +7~l{+;;;e+b1&=1/>#&)&#>//=&1b+e;;;+kl=_+@$   ...   ",
"@........   $eek;; @  ;;k~*&&~)nmn)>&&*~{$;    ;;eke$      ...  ",
"@@ ......    %++    .   ;v_*(nm0hjmn(*,v;   .    +++      @...  ",
"@   ..... @  $$$   ...  ;+v5=_a[[[an=5i+;  ...   $$$     ...   $",
"@. ..........  ..@  ...  e+{*=)ppp)=*{+e .....           .. .   ",
"@.... ............. .....$+fuu|&=&|uuf+$ @.... .......  ... @   ",
"@..................... .. $%++r~l~v+++$   .... .......  ...     ",
"@@ ....  ..... ....... ..  $;;;eee;;;$    ..........    ....    ",
"@@  ...      ..   ....   .     +++   ..  ......   .@     ..     ",
"@@  .....           ..   ..    $$$$     @....     .     ....    ",
"@   ....   $      ....     ....       $... ..  ......   ......  ",
"   %       .%                              .     .              "};
