/* XPM */
static char *result[] = {
/* columns rows colors chars-per-pixel */
"50 50 11 1 ",
"  c black",
". c #36130B",
"X c #592B2B",
"o c #4F7A36",
"O c #880015",
"+ c #823737",
"@ c #AD3636",
"# c #ED1C24",
"$ c #589137",
"% c #65AB3F",
"& c white",
/* pixels */
"oooo%%%%%%%$$$%%%%%%%%%%%%%%%%%%$$$$ooo$$$$%%%%%%%",
"oooo%%%%%%%$$$%%%%%%%%%%%%%%%%%%$$$$ooo$$$$%%%%%%%",
"oooo%%%%%%%$$$%%%%%%%%%%%%%%%%%%$$$$ooo$$$$%%%%%%%",
"oooo%%%%%%%$$$%%%%%%%%%%%%%%%%%%$$$$ooo$$$$%%%%%%%",
"%%%%%%%%%%%$$$oooo$$$%%%%%%%%%%%%%%%%%%%%%%%%%%%%%",
"%%%%%%%%%%%$$$oooo$$$%%%%%%%%%%%%%%%%%%%%%%%%%%%%%",
"%%%%%%%%%%%$$$oooo$$$%%%%%%%%%%%%%%%%%%%%%%%%%%%%%",
"%%%%$$$%%%%%%%%%%%$$$%%%%%%%%$$$%%%%%%%%%%%%%%%%%%",
"%%%%$$$%%%%%%%%%%%$$$%%%%%%%%$$$%%%%%%%%%%%%%%%%%%",
"%%%%$$$%%%%%%%%%%%$$$%%%%%%%%$$$%%%%%%%%%%%%%%%%%%",
"%%%%$$$%%%%%%%%%%%$$$%%%%%%%%$$$%%%%%%%%%%%%%%%%%%",
"%%%%$$$%%%%ooo%%%%%%%%%%%%%%%$$$%%%%ooo%%%%$$$%%%%",
"%%%%$$$%%%%ooo%%%%%%%%%%%%%%%$$$%%%%ooo%%%%$$$%%%%",
"%%%%$$$%%%%ooo%%%%%%%%%%%%%%%$$$%%%%ooo%%%%$$$%%%%",
"%%%%%%%%%%%ooo%%%%%    %%%%%%%%%%%%%ooo%%%%$$$%%%%",
"%%%%%%%%%%%ooo%%%%%    %%%%%%%%%%%%%ooo%%%%$$$%%%%",
"%%%%%%%%%%%ooo%%%  ##OO  %%%%%%%%%%%ooo%%%%$$$%%%%",
"%%%%%%%%%%%ooo%%%  ##OO  %%%%%%%%%%%ooo%%%%$$$%%%%",
"$$$$%%%%%%%%%%%  ##&&##@@  oo$$$%%%%%%%%%%%%%%%%%%",
"$$$$%%%%%%%%%%%  ##&&##@@  oo$$$%%%%%%%%%%%%%%%%%%",
"$$$$%%%%%%%%%%%  OO##@@++@@  $$$%%%%%%%%%%%%%%%%%%",
"$$$$%%%%%%%$$$%  OO##@@++@@  $$$%%%%%%%%%%%%%%%%%%",
"$$$$%%%%%%%$$$%%%  ..XX++++  $$$%%%%%%%%%%%%%%%%%%",
"$$$$%%%%%%%$$$%%%  ..XX++++  $$$%%%%%%%%%%%%%%%%%%",
"$$$$%%%%%%%$$$%%%%%  ..XXXX  $$$%%%%%%%%%%%%%%%%%%",
"%%%%%%%%%%%$$$%%%%%  ..XXXX  %%%%%%%$$$%%%%%%%%%%%",
"%%%%%%%%%%%$$$%%%%%%%      %%    %%%$$$%%%%%%%%%%%",
"%%%%%%%%%%%$$$%%%%%%%      %%    %%%$$$%%%%%%%%%%%",
"%%%%%%%%%%%$$$%%%%%%%%%%%%%  %%  %%%$$$%%%%%%%%%%%",
"%%%%%%%%%%%%%%%%%%%%%$$$$%%  %%  %%%$$$%%%%%%%$$$$",
"%%%%%%%%%%%%%%%%%%%%%$$$$%%    %%%%%$$$%%%%%%%$$$$",
"%%%%%%%%%%%%%%%%%%%%%$$$$%%    %%%%%$$$%%%%%%%$$$$",
"%%%%ooo%%%%%%%$$$$ooo$$$$%%%%%%%%%%%%%%%%%%%%%$$$$",
"%%%%ooo%%%%%%%$$$$ooo$$$$%%%%%%%%%%%%%%%%%%%%%$$$$",
"%%%%ooo%%%%%%%$$$$ooo$$$$%%%%%%%%%%%%%%%%%%%%%$$$$",
"%%%%ooo%%%%%%%$$$$ooo$$$$%%%%%%%%%%%%%%%%%%%%%$$$$",
"%%%%ooo%%%%%%%$$$$%%%%%%%%%%%$$$%%%%%%%oooo%%%%%%%",
"%%%%ooo%%%%%%%$$$$%%%%%%%%%%%$$$%%%%%%%oooo%%%%%%%",
"%%%%ooo%%%%%%%$$$$%%%%%%%%%%%$$$%%%%%%%oooo%%%%%%%",
"%%%%%%%$$$$%%%%%%%%%%%%%%%%%%$$$%%%%%%%oooo%%%%%%%",
"%%%%%%%$$$$%%%%%%%%%%%%%%%%%%$$$%%%%%%%oooo%%%%%%%",
"%%%%%%%$$$$%%%%%%%%%%%%%%%%%%$$$%%%%%%%oooo%%%%%%%",
"%%%%%%%$$$$%%%%%%%%%%%%%%%%%%$$$%%%%%%%oooo%%%%%%%",
"%%%%%%%$$$$%%%%%%%%%%oooo%%%%%%%%%%%%%%%%%%%%%$$$$",
"%%%%%%%$$$$%%%%%%%%%%oooo%%%%%%%%%%%%%%%%%%%%%$$$$",
"%%%%%%%$$$$%%%%%%%%%%oooo%%%%%%%%%%%%%%%%%%%%%$$$$",
"oooo%%%%%%%%%%%%%%%%%oooo%%%%%%%$$$$ooo$$$$%%%$$$$",
"oooo%%%%%%%%%%%%%%%%%oooo%%%%%%%$$$$ooo$$$$%%%$$$$",
"oooo%%%%%%%%%%%%%%%%%oooo%%%%%%%$$$$ooo$$$$%%%$$$$",
"oooo%%%%%%%%%%%%%%%%%oooo%%%%%%%$$$$ooo$$$$%%%$$$$"
};
