/* XPM */
static char *result[] = {
/* columns rows colors chars-per-pixel */
"50 50 10 1 ",
"  c black",
". c #37474F",
"X c #9C3232",
"o c #AD3C3C",
"O c #C04B4B",
"+ c #008000",
"@ c #4CAF50",
"# c #CDDC39",
"$ c #C79FA0",
"% c #D9B4B6",
/* pixels */
"OOOOOOOOOOOOOOoo$OOOOOOOOOOOOOOoo$OOOOOOOOOOOOOOOo",
"OoooooooooooooXX%OOooooooooooooXX%OOoooooooooooooX",
"OoooooooooooooXX%OOooooooooooooXX%OOoooooooooooooX",
"OoooooooooooooXX%OOooooooooooooXX%OOoooooooooooooX",
"OoooooooooooooXX%OOooooooooooooXX%OOoooooooooooooX",
"OoooooooooooooXX%OOooooooooooooXX%OOoooooooooooooX",
"oXXXXXXXXXXXXXXX$ooXXXXXXXXXXXXXX$ooXXXXXXXXXXXXXX",
"$%%%%%$$$$%%%%$$$$$%%%%$$$$%%%%$$$$$%%%%$$$$%%%%%$",
"$%%%%%$$$$%%%%$$$$$%%%%$$#@@@@@$$$$$%%%%$$$$%%%%%$",
"OOOOOOo$$OOOOOOOOOOOOOOo$#@@@@@@@@@@OOOOo$$OOOOOOO",
"ooooooX%%Oooo............#@@@@@@@@@@@@@..%%Ooooooo",
"ooooooX%%Oooo............#@@@@@@@@@@@@@..%%Ooooooo",
"ooooooX%%Oooo............#@@@@@@@@@@@@@..%%Ooooooo",
"ooooooX%%Oooo...         #@@@++++@@@@@@..%%Ooooooo",
"XXXXXXX$$oXXX...         #@@@++@@+++@@@..$$oXXXXXX",
"XXXXXXX$$oXXX...         #@@@++@@+@@##@..$$oXXXXXX",
"$%%%%%$$$$%%%...         #@@@++@@+@@##@..$$$%%%%%$",
"OOOOOOOOOOOOO...         #@@@++@@+@@###..OOOOOOOOo",
"OOOOOOOOOOOOO...         #@@@++@@+@@##+..OOOOOOOOo",
"Ooooooooooooo...         #@@@++@@+@@##+..ooooooooX",
"Ooooooooooooo...         #@@@++@@+@@##+..ooooooooX",
"Ooooooooooooo...         #@@@++@@+@@##+..ooooooooX",
"Ooooooooooooo...         #@@@++@@+@@##@..ooooooooX",
"oXXXXXXXXXXXX...         #@@@++@@+@@##@..XXXXXXXXX",
"$%%%%%$$$$%%%...         #@@@++@@+@@##@..$$$%%%%%$",
"$%%%%%$$$$%%%...         #@@@@@###@@##@..$$$%%%%%$",
"OOOOOOo$$OOOO...         #@@@@@###@@##@..$$OOOOOOO",
"ooooooX%%Oooo...         #@@@@@@@@####@..%%Ooooooo",
"ooooooX%%Oooo...         #@@@@@@@@@@@@@..%%Ooooooo",
"ooooooX%%Oooo...         #@@@@@@@@@@@@@..%%Ooooooo",
"ooooooX%%Oooo...         #@@@@@@@@@@@@@..%%Ooooooo",
"XXXXXXX$$oXXX...         #@@@@@@@@@@@@@..$$oXXXXXX",
"XXXXXXX$$oXXX...         #@@@@@@@@++##@..$$oXXXXXX",
"$%%%%%$$$$%%%...         #@@@@@+++@@##@..$$$%%%%%$",
"OOOOOOOOOOOOO...         #@@@@@+++@@##@..OOOOOOOOo",
"OOOOOOOOOOOOO...         #@@@++@@+@@##@..OOOOOOOOo",
"Ooooooooooooo...         #@@@++@@+@@##@..ooooooooX",
"Ooooooooooooo...         #@@@++@@+@@##@..ooooooooX",
"Ooooooooooooo...         #@@@++@@+@@###..ooooooooX",
"Ooooooooooooo...         #@@@++@@+@@##+..ooooooooX",
"oXXXXXXXXXXXX...         #@@@++@@+@@##+..XXXXXXXXX",
"$%%%%%$$$$%%%...         #@@@++@@+@@##+..$$$%%%%%$",
"$%%%%%$$$$%%%...         #@@@++@@+@@##+..$$$%%%%%$",
"OOOOOOo$$OOOO...         #@@@++@@+@@##@..$$OOOOOOO",
"ooooooX%%Oooo...         #@@@++@@+@@##@..%%Ooooooo",
"ooooooX%%Oooo...         #@@@++@@###@@@..%%Ooooooo",
"ooooooX%%Oooo...         #@@@++##@@@@@@..%%Ooooooo",
"ooooooX%%Oooo............#@@@@@@@@@@@@@..%%Ooooooo",
"ooooooX%%Oooo............#@@@@@@@@@@@@@..%%Ooooooo",
"XXXXXXX$$oXXX............#@@@@@@@@@@@@@..$$oXXXXXX"
};
