/* XPM */
static char *result[] = {
/* columns rows colors chars-per-pixel */
"50 50 10 1 ",
"  c #5D2C28",
". c #37474F",
"X c #9C3232",
"o c #AD3C3C",
"O c #8A4836",
"+ c #BF6F4A",
"@ c #C04B4B",
"# c #E69C69",
"$ c #C79FA0",
"% c #D9B4B6",
/* pixels */
"@@@@@@@@@@@@@@oo$@@@@@@@@@@@@@@oo$@@@@@@@@@@@@@@@o",
"@oooooooooooooXX%@@ooooooooooooXX%@@oooooooooooooX",
"@oooooooooooooXX%@@ooooooooooooXX%@@oooooooooooooX",
"@oooooooooooooXX%@@ooooooooooooXX%@@oooooooooooooX",
"@oooooooooooooXX%@@ooooooooooooXX%@@oooooooooooooX",
"@oooooooo................................ooooooooX",
"oXXXXXXXX..OOOOOOOOOOOOOOOOOOOOOOOOOOOO..XXXXXXXXX",
"$%%%%%$$$..OOOOOOOOOOOOOOOOOOOOOOOOOOOO..$$$%%%%%$",
"$%%%%%$$$..OOOOOOOOOOOOOOOOOOOOOOOOOOOO..$$$%%%%%$",
"@@@@@@o$$..OOOOOOOOOOOOOOOOOOOOOOOOOOOO..$$@@@@@@@",
"ooooooX%%..OOOOOOOOOOOOOOOOOOOOOOOOOOOO..%%@oooooo",
"ooooooX%%..OOOOOOOOOOOOOOOOOOOOOOOOOOOO..%%@oooooo",
"ooooooX%%..OOOOOO                ##OOOO..%%@oooooo",
"ooooooX%%..OOOOOO ++++  ++++  +++##OOOO..%%@oooooo",
"XXXXXXX$$..OOOOOO ++++  ++++  +++##OO##..$$oXXXXXX",
"XXXXXXX$$..OOOOOO ++++  ++++  +++##OO##..$$oXXXXXX",
"$%%%%%$$$..OOOOOO ++++  ++++  +++##OO  ..$$$%%%%%$",
"@@@@@@@@@..OOOOOO ++++  ++++  +++##OO  ..@@@@@@@@o",
"@@@@@@@@@..OOOOOO ++++  ++++  +++##OO  ..@@@@@@@@o",
"@oooooooo..OOOOOO ++++  ++++  +++##OO  ..ooooooooX",
"@oooooooo..OOOOOO ++++  ++++  +++##OO  ..ooooooooX",
"@oooooooo..OOOOOO ++++  ++++  +++##OOOO..ooooooooX",
"@oooooooo..OOOOOO ++++  ++++  +++##OOOO..ooooooooX",
"oXXXXXXXX..OOOOOO ++++  ++++  +++##OOOO..XXXXXXXXX",
"$%%%%%$$$..OOOOOO #################OOOO..$$$%%%%%$",
"$%%%%%$$$..OOOOOOOOOOOOOOOOOOOOOOOOOOOO..$$$%%%%%$",
"@@@@@@o$$..OOOOOOOOOOOOOOOOOOOOOOOOOOOO..$$@@@@@@@",
"ooooooX%%..OOOOOOOOOOOOOOOOOOOOOOOOOOOO..%%@oooooo",
"ooooooX%%..OOOOOOOOOOOOOOOOOOOOOOOOOOOO..%%@oooooo",
"ooooooX%%..OOOOOOOOOOOOOOOOOOOOOOOOOOOO..%%@oooooo",
"ooooooX%%..OOOOOOOOOOOOOOOOOOOOOOOOOOOO..%%@oooooo",
"XXXXXXX$$..OOOOOO                ##OOOO..$$oXXXXXX",
"XXXXXXX$$..OOOOOO                ##OOOO..$$oXXXXXX",
"$%%%%%$$$..OOOOOO ++++  ++++  +++##OOOO..$$$%%%%%$",
"@@@@@@@@@..OOOOOO ++++  ++++  +++##OO##..@@@@@@@@o",
"@@@@@@@@@..OOOOOO ++++  ++++  +++##OO  ..@@@@@@@@o",
"@oooooooo..OOOOOO ++++  ++++  +++##OO  ..ooooooooX",
"@oooooooo..OOOOOO ++++  ++++  +++##OO  ..ooooooooX",
"@oooooooo..OOOOOO ++++  ++++  +++##OO  ..ooooooooX",
"@oooooooo..OOOOOO ++++  ++++  +++##OO  ..ooooooooX",
"oXXXXXXXX..OOOOOO ++++  ++++  +++##OO  ..XXXXXXXXX",
"$%%%%%$$$..OOOOOO ++++  ++++  +++##OOOO..$$$%%%%%$",
"$%%%%%$$$..OOOOOO ++++  ++++  +++##OOOO..$$$%%%%%$",
"@@@@@@o$$..OOOOOO #################OOOO..$$@@@@@@@",
"ooooooX%%..OOOOOO #################OOOO..%%@oooooo",
"ooooooX%%..OOOOOOOOOOOOOOOOOOOOOOOOOOOO..%%@oooooo",
"ooooooX%%..OOOOOOOOOOOOOOOOOOOOOOOOOOOO..%%@oooooo",
"ooooooX%%..OOOOOOOOOOOOOOOOOOOOOOOOOOOO..%%@oooooo",
"ooooooX%%..OOOOOOOOOOOOOOOOOOOOOOOOOOOO..%%@oooooo",
"XXXXXXX$$................................$$oXXXXXX"
};
