/* XPM */
static char *result[] = {
/* columns rows colors chars-per-pixel */
"50 50 3 1 ",
"  c #4F7A36",
". c #589137",
"X c #65AB3F",
/* pixels */
"    XXXXXXX...XXXXXXXXXXXXXXXXXX....   ....XXXXXXX",
"    XXXXXXX...XXXXXXXXXXXXXXXXXX....   ....XXXXXXX",
"    XXXXXXX...XXXXXXXXXXXXXXXXXX....   ....XXXXXXX",
"    XXXXXXX...XXXXXXXXXXXXXXXXXX....   ....XXXXXXX",
"XXXXXXXXXXX...    ...XXXXXXXXXXXXXXXXXXXXXXXXXXXXX",
"XXXXXXXXXXX...    ...XXXXXXXXXXXXXXXXXXXXXXXXXXXXX",
"XXXXXXXXXXX...    ...XXXXXXXXXXXXXXXXXXXXXXXXXXXXX",
"XXXX...XXXXXXXXXXX...XXXXXXXX...XXXXXXXXXXXXXXXXXX",
"XXXX...XXXXXXXXXXX...XXXXXXXX...XXXXXXXXXXXXXXXXXX",
"XXXX...XXXXXXXXXXX...XXXXXXXX...XXXXXXXXXXXXXXXXXX",
"XXXX...XXXXXXXXXXX...XXXXXXXX...XXXXXXXXXXXXXXXXXX",
"XXXX...XXXX   XXXXXXXXXXXXXXX...XXXX   XXXX...XXXX",
"XXXX...XXXX   XXXXXXXXXXXXXXX...XXXX   XXXX...XXXX",
"XXXX...XXXX   XXXXXXXXXXXXXXX...XXXX   XXXX...XXXX",
"XXXXXXXXXXX   XXXXXXXXXXXXXXXXXXXXXX   XXXX...XXXX",
"XXXXXXXXXXX   XXXXXXXXXXXXXXXXXXXXXX   XXXX...XXXX",
"XXXXXXXXXXX   XXXXXXXXXXXXXXXXXXXXXX   XXXX...XXXX",
"XXXXXXXXXXX   XXXXXXXXXXXXXXXXXXXXXX   XXXX...XXXX",
"....XXXXXXXXXXXXXXXXX....    ...XXXXXXXXXXXXXXXXXX",
"....XXXXXXXXXXXXXXXXX....    ...XXXXXXXXXXXXXXXXXX",
"....XXXXXXXXXXXXXXXXX....    ...XXXXXXXXXXXXXXXXXX",
"....XXXXXXX...XXXXXXX....    ...XXXXXXXXXXXXXXXXXX",
"....XXXXXXX...XXXXXXX....    ...XXXXXXXXXXXXXXXXXX",
"....XXXXXXX...XXXXXXX....    ...XXXXXXXXXXXXXXXXXX",
"....XXXXXXX...XXXXXXX....    ...XXXXXXXXXXXXXXXXXX",
"XXXXXXXXXXX...XXXXXXXXXXXXXXXXXXXXXX...XXXXXXXXXXX",
"XXXXXXXXXXX...XXXXXXXXXXXXXXXXXXXXXX...XXXXXXXXXXX",
"XXXXXXXXXXX...XXXXXXXXXXXXXXXXXXXXXX...XXXXXXXXXXX",
"XXXXXXXXXXX...XXXXXXXXXXXXXXXXXXXXXX...XXXXXXXXXXX",
"XXXXXXXXXXXXXXXXXXXXX....XXXXXXXXXXX...XXXXXXX....",
"XXXXXXXXXXXXXXXXXXXXX....XXXXXXXXXXX...XXXXXXX....",
"XXXXXXXXXXXXXXXXXXXXX....XXXXXXXXXXX...XXXXXXX....",
"XXXX   XXXXXXX....   ....XXXXXXXXXXXXXXXXXXXXX....",
"XXXX   XXXXXXX....   ....XXXXXXXXXXXXXXXXXXXXX....",
"XXXX   XXXXXXX....   ....XXXXXXXXXXXXXXXXXXXXX....",
"XXXX   XXXXXXX....   ....XXXXXXXXXXXXXXXXXXXXX....",
"XXXX   XXXXXXX....XXXXXXXXXXX...XXXXXXX    XXXXXXX",
"XXXX   XXXXXXX....XXXXXXXXXXX...XXXXXXX    XXXXXXX",
"XXXX   XXXXXXX....XXXXXXXXXXX...XXXXXXX    XXXXXXX",
"XXXXXXX....XXXXXXXXXXXXXXXXXX...XXXXXXX    XXXXXXX",
"XXXXXXX....XXXXXXXXXXXXXXXXXX...XXXXXXX    XXXXXXX",
"XXXXXXX....XXXXXXXXXXXXXXXXXX...XXXXXXX    XXXXXXX",
"XXXXXXX....XXXXXXXXXXXXXXXXXX...XXXXXXX    XXXXXXX",
"XXXXXXX....XXXXXXXXXX    XXXXXXXXXXXXXXXXXXXXX....",
"XXXXXXX....XXXXXXXXXX    XXXXXXXXXXXXXXXXXXXXX....",
"XXXXXXX....XXXXXXXXXX    XXXXXXXXXXXXXXXXXXXXX....",
"    XXXXXXXXXXXXXXXXX    XXXXXXX....   ....XXX....",
"    XXXXXXXXXXXXXXXXX    XXXXXXX....   ....XXX....",
"    XXXXXXXXXXXXXXXXX    XXXXXXX....   ....XXX....",
"    XXXXXXXXXXXXXXXXX    XXXXXXX....   ....XXX...."
};
