/* XPM */
static char *result[] = {
/* columns rows colors chars-per-pixel */
"50 50 5 1 ",
"  c #9C3232",
". c #AD3C3C",
"X c #C04B4B",
"o c #C79FA0",
"O c #D9B4B6",
/* pixels */
"XXXXXXXXXXXXXX.oXXXXXXXXXXXXXXX..oXXXXXXXXXXXXXXX.",
".............. OXX.............  OX.............. ",
".............. OXX.............  OX.............. ",
".............. OXX.............  OX.............. ",
".............. OXX.............  OX.............. ",
".............. OXX.............  OX.............. ",
"               o..               o.               ",
"OOOOOooooOOOOOooooOOOOoooooOOOOooooOOOOOooooOOOOOo",
"OOOOOooooOOOOOooooOOOOoooooOOOOooooOOOOOooooOOOOOo",
"XXXXX.ooXXXXXXXXXXXXXX..oXXXXXXXXXXXXXXX.ooXXXXXXX",
"..... OOX.............  OXX............. OOX......",
"..... OOX.............  OXX............. OOX......",
"..... OOX.............  OXX............. OOX......",
"..... OOX.............  OXX............. OOX......",
"      oo.               o..              oo.      ",
"      oo.               o..              oo.      ",
"OOOOOooooOOOOOooooOOOOoooooOOOOooooOOOOOooooOOOOOo",
"XXXXXXXXXXXXXX.oXXXXXXXXXXXXXXX..oXXXXXXXXXXXXXXX.",
"XXXXXXXXXXXXXX.oXXXXXXXXXXXXXXX..oXXXXXXXXXXXXXXX.",
".............. OXX.............  OX.............. ",
".............. OXX.............  OX.............. ",
".............. OXX.............  OX.............. ",
".............. OXX.............  OX.............. ",
"               o..               o.               ",
"OOOOOooooOOOOOooooOOOOoooooOOOOooooOOOOOooooOOOOOo",
"OOOOOooooOOOOOooooOOOOoooooOOOOooooOOOOOooooOOOOOo",
"XXXXX.ooXXXXXXXXXXXXXX..oXXXXXXXXXXXXXXX.ooXXXXXXX",
"..... OOX.............  OXX............. OOX......",
"..... OOX.............  OXX............. OOX......",
"..... OOX.............  OXX............. OOX......",
"..... OOX.............  OXX............. OOX......",
"      oo.               o..              oo.      ",
"      oo.               o..              oo.      ",
"OOOOOooooOOOOOooooOOOOoooooOOOOooooOOOOOooooOOOOOo",
"XXXXXXXXXXXXXX.oXXXXXXXXXXXXXXX..oXXXXXXXXXXXXXXX.",
"XXXXXXXXXXXXXX.oXXXXXXXXXXXXXXX..oXXXXXXXXXXXXXXX.",
".............. OXX.............  OX.............. ",
".............. OXX.............  OX.............. ",
".............. OXX.............  OX.............. ",
".............. OXX.............  OX.............. ",
"               o..               o.               ",
"OOOOOooooOOOOOooooOOOOoooooOOOOooooOOOOOooooOOOOOo",
"OOOOOooooOOOOOooooOOOOoooooOOOOooooOOOOOooooOOOOOo",
"XXXXX.ooXXXXXXXXXXXXXX..oXXXXXXXXXXXXXXX.ooXXXXXXX",
"..... OOX.............  OXX............. OOX......",
"..... OOX.............  OXX............. OOX......",
"..... OOX.............  OXX............. OOX......",
"..... OOX.............  OXX............. OOX......",
"..... OOX.............  OXX............. OOX......",
"      oo.               o..              oo.      "
};
