/* XPM */
static char *result[] = {
/* columns rows colors chars-per-pixel */
"50 50 15 1 ",
"  c #011128",
". c #53253B",
"X c #4F7A36",
"o c #2A4B5D",
"O c #6F4A54",
"+ c #AE4E3F",
"@ c #D27529",
"# c #589137",
"$ c #65AB3F",
"% c #798360",
"& c #F3B332",
"* c #ED824B",
"= c #FFDC95",
"- c #9FD7E9",
"; c #FCFFFD",
/* pixels */
"XXXX$$$$$$$###$$$$$$$$$$$$$$$$$$####XXX####$$$$$$$",
"XXXX$$$$$$$###$$$$$$$$$$$$$$$$$$####XXX####$$$$$$$",
"XXXX$$$$$$$###$$$$$$      $$$$$$####XXX####$$$$$$$",
"XXXX$$$$$$$###$$$$  ...+++      ####XXX####$$$$$$$",
"$$$$$$$$$$$###X   ==++++++++  +. $$$$$$$$$$$$$$$$$",
"$$$$$$$$$$$### ==++++++++++++++.   $$$$$$$$$$$$$$$",
"$$$$$$$$$$$## +++..===++++++....... $$$$$$$$$$$$$$",
"$$$$###$$$$$$ ...+==+++.+++......  $$$$$$$$$$$$$$$",
"$$$$###$$$$$$ ...+==+++.+++......  $$$$$$$$$$$$$$$",
"$$$$###$$$$$$$ ++++++++ ++..  +.... $$$$$$$$$$$$$$",
"$$$$###$$$$$$ +==++=... ++.   ...... $$$$$$$$$$$$$",
"$$$$###$$$$  +++++....  ++ ooo     . XX$$$$###$$$$",
"$$$$###$$$$  ++++...  oo  %%%%%oooo XXX$$$$###$$$$",
"$$$$###$$$ ++.+.....  %%%%%%%%%%ooo XXX$$$$###$$$$",
"$$$$$$$$$$$   +...  ooooooooooooooo XXX$$$$###$$$$",
"$$$$$$$$$$$XX +.. ============      XXX$$$$###$$$$",
"$$$$$$$$$$$XX .  *     ====     *..  XX$$$$###$$$$",
"$$$$$$$$$$$  = ..*-%  -*==@-%% -*.. =  $$$$###$$$$",
"####$$$$$$$  *...=;;  ;====;;; ;=...*  $$$$$$$$$$$",
"####$$$$$$$  *...=;;  ;====;;; ;=...*  $$$$$$$$$$$",
"####$$$$$$$  **..=;   ;====;   ==..**  $$$$$$$$$$$",
"####$$$$$$$## ***===============**** $$$$$$$$$$$$$",
"####$$$$$$$###   *======**=====**   $$$$$$$$$$$$$$",
"####$$$$$$$###$$$ **==========*  $$$$$$$$$$$$$$$$$",
"####$$$$$$$###$$$$  ********** #$$$$$$$$$$$$$$$$$$",
"$$$$$$$$$$$###$$$$$$   +++@   $$$$$$###$$$$$$$$$$$",
"$$$$$$$$$$$###$$$$  @@ ====...  $$$$###$$$$$$$$$$$",
"$$$$$$$$$$$###$$$ @.@@@   @@.... $$$###$$$$$$$$$$$",
"$$$$$$$$$$$###$  @@...@@   @...+.  $###$$$$$$$$$$$",
"$$$$$$$$$$$$$$ @@@. ..@@@@  .. .@@@ ###$$$$$$$####",
"$$$$$$$$$$$$$$ ..O $  @@@@@     .++ ###$$$$$$$####",
"$$$$$$$$$$$$$$ ..O $  @@@@@     .++ ###$$$$$$$####",
"$$$$XXX$$$$$$ OOO XX  @@@@@@@@ $ OOO $$$$$$$$$####",
"$$$$XXX$$$$  O.  #XX           $$  OO  $$$$$$$####",
"$$$$XXX$$$ OOO.  #  ...&   &.. $$$$ OOO $$$$$$####",
"$$$$XXX$$$ &&O.   *.  oooooo   $$$$ O&& $$$$$$####",
"$$$$XXX$$$ .. =   O.oo%%%%%%ooo $  = .. XXX$$$$$$$",
"$$$$XXX$$$ .. *  # o%%%%%%%%%%o $  * .. XXX$$$$$$$",
"$$$$XXX$$$$    ## o%%%%oooo%%%%o $$    XXXX$$$$$$$",
"$$$$$$$####$$$$  o%%%%o    o%%%%o  $$$$XXXX$$$$$$$",
"$$$$$$$####$$$$  o%%oo $$$$ oo%%o  $$$$XXXX$$$$$$$",
"$$$$$$$####$$$$  ooooo $$$$ ooooo  $$$$XXXX$$$$$$$",
"$$$$$$$####$$$$  ooooo $$$$ ooooo  $$$$XXXX$$$$$$$",
"$$$$$$$####$$$$$$     XXX$$$     $$$$$$$$$$$$$####",
"$$$$$$$####$$$$  OO $XXXX$$$$$.OO  $$$$$$$$$$$####",
"$$$$$$$####$$$$  @  $XXXX$$$$$ .@  $$$$$$$$$$$####",
"XXXX$$$$$$$$$$ ++.. $XXXX$$$$$ ..++ XXX####$$$####",
"XXXX$$$$$$$$$$      $XXXX$$$$$      XXX####$$$####",
"XXXX$$$$$$$$$$$$$$$$$XXXX$$$$$$$####XXX####$$$####",
"XXXX$$$$$$$$$$$$$$$$$XXXX$$$$$$$####XXX####$$$####"
};
